<svg width="128" height="128" viewBox="0 0 128 128" fill="none" xmlns="http://www.w3.org/2000/svg">
<path d="M16.2357 64.2064C16.2357 77.7912 20.4385 85.2266 25.6704 89.3221C30.9726 93.4726 37.6269 94.4313 42.9601 94.4313C47.7081 94.4313 52.2506 91.2709 55.6851 85.642C59.1035 80.0392 61.2668 72.2035 61.2668 63.4689C61.2668 58.9692 61.2657 54.975 60.9627 51.4264C60.66 47.8812 60.0626 44.8855 58.9248 42.376C56.7262 37.527 52.3208 34.0927 42.7127 32.4858C35.5864 31.294 29.0288 34.7349 24.1538 40.8383C19.2746 46.9469 16.2357 55.5673 16.2357 64.2064Z" fill="white" stroke="black" stroke-width="3"/>
<path d="M45.2771 69.1064C45.2771 72.1687 45.9873 74.9247 47.1182 76.9033C48.2545 78.8915 49.7731 80.0327 51.378 80.0327C52.9829 80.0327 54.5016 78.8915 55.6379 76.9033C56.7688 74.9247 57.479 72.1687 57.479 69.1064C57.479 66.044 56.7688 63.2881 55.6379 61.3094C54.5016 59.3213 52.9829 58.1801 51.378 58.1801C49.7731 58.1801 48.2545 59.3213 47.1182 61.3094C45.9873 63.2881 45.2771 66.044 45.2771 69.1064Z" fill="black" stroke="black" stroke-width="0.672414"/>
<path d="M48.0616 66.1376C48.0616 68.8324 49.7979 70.9563 51.8729 70.9563C53.9479 70.9563 55.6843 68.8324 55.6843 66.1376C55.6843 63.4428 53.9479 61.3188 51.8729 61.3188C49.7979 61.3188 48.0616 63.4428 48.0616 66.1376Z" fill="white" stroke="white" stroke-width="0.3"/>
<path d="M113.755 64.2064C113.755 77.7912 109.552 85.2266 104.32 89.3221C99.0176 93.4726 92.3633 94.4313 87.0301 94.4313C82.2821 94.4313 77.7396 91.2709 74.3052 85.642C70.8867 80.0392 68.7235 72.2035 68.7235 63.4689C68.7235 58.9692 68.7246 54.975 69.0275 51.4264C69.3302 47.8812 69.9276 44.8855 71.0654 42.376C73.264 37.527 77.6694 34.0927 87.2775 32.4858C94.4038 31.294 100.961 34.7349 105.836 40.8383C110.716 46.9469 113.755 55.5673 113.755 64.2064Z" fill="white" stroke="black" stroke-width="3"/>
<path d="M84.7133 69.1064C84.7133 72.1687 84.0031 74.9247 82.8722 76.9033C81.7358 78.8915 80.2172 80.0327 78.6123 80.0327C77.0074 80.0327 75.4888 78.8915 74.3524 76.9033C73.2215 74.9247 72.5114 72.1687 72.5114 69.1064C72.5114 66.044 73.2215 63.2881 74.3524 61.3094C75.4888 59.3213 77.0074 58.1801 78.6123 58.1801C80.2172 58.1801 81.7358 59.3213 82.8722 61.3094C84.0031 63.2881 84.7133 66.044 84.7133 69.1064Z" fill="black" stroke="black" stroke-width="0.672414"/>
<path d="M81.7423 66.1376C81.7423 68.7711 80.0522 70.7701 78.1172 70.7701C76.1822 70.7701 74.4921 68.7711 74.4921 66.1376C74.4921 63.504 76.1822 61.505 78.1172 61.505C80.0522 61.505 81.7423 63.504 81.7423 66.1376Z" fill="white" stroke="white" stroke-width="0.672414"/>
</svg>
