<svg width="128" height="128" viewBox="0 0 128 128" fill="none" xmlns="http://www.w3.org/2000/svg">
<path d="M16.2357 64.2064C16.2357 77.7912 20.4385 85.2266 25.6704 89.3221C30.9726 93.4726 37.6269 94.4313 42.9601 94.4313C47.7081 94.4313 52.2506 91.2709 55.6851 85.642C59.1035 80.0392 61.2668 72.2035 61.2668 63.4689C61.2668 58.9692 61.2657 54.975 60.9627 51.4264C60.66 47.8812 60.0626 44.8855 58.9248 42.376C56.7262 37.527 52.3208 34.0927 42.7127 32.4858C35.5864 31.294 29.0288 34.7349 24.1538 40.8383C19.2746 46.9469 16.2357 55.5673 16.2357 64.2064Z" fill="white" stroke="black" stroke-width="3"/>
<path d="M46.2771 68.1064C46.2771 71.1687 46.9873 73.9247 48.1182 75.9033C49.2545 77.8915 50.7731 79.0327 52.378 79.0327C53.9829 79.0327 55.5016 77.8915 56.6379 75.9033C57.7688 73.9247 58.479 71.1687 58.479 68.1064C58.479 65.044 57.7688 62.2881 56.6379 60.3094C55.5016 58.3213 53.9829 57.1801 52.378 57.1801C50.7731 57.1801 49.2545 58.3213 48.1182 60.3094C46.9873 62.2881 46.2771 65.044 46.2771 68.1064Z" fill="black" stroke="black" stroke-width="0.672414"/>
<path d="M49.0616 65.1376C49.0616 67.8324 50.7979 69.9563 52.8729 69.9563C54.9479 69.9563 56.6843 67.8324 56.6843 65.1376C56.6843 62.4428 54.9479 60.3188 52.8729 60.3188C50.7979 60.3188 49.0616 62.4428 49.0616 65.1376Z" fill="white" stroke="white" stroke-width="0.3"/>
<path d="M113.755 64.2064C113.755 77.7912 109.552 85.2266 104.32 89.3221C99.0176 93.4726 92.3633 94.4313 87.0301 94.4313C82.2821 94.4313 77.7396 91.2709 74.3052 85.642C70.8867 80.0392 68.7235 72.2035 68.7235 63.4689C68.7235 58.9692 68.7246 54.975 69.0275 51.4264C69.3302 47.8812 69.9276 44.8855 71.0654 42.376C73.264 37.527 77.6694 34.0927 87.2775 32.4858C94.4038 31.294 100.961 34.7349 105.836 40.8383C110.716 46.9469 113.755 55.5673 113.755 64.2064Z" fill="white" stroke="black" stroke-width="3"/>
<path d="M85.7133 68.1064C85.7133 71.1687 85.0031 73.9247 83.8722 75.9033C82.7358 77.8915 81.2172 79.0327 79.6123 79.0327C78.0074 79.0327 76.4888 77.8915 75.3524 75.9033C74.2215 73.9247 73.5114 71.1687 73.5114 68.1064C73.5114 65.044 74.2215 62.2881 75.3524 60.3094C76.4888 58.3213 78.0074 57.1801 79.6123 57.1801C81.2172 57.1801 82.7358 58.3213 83.8722 60.3094C85.0031 62.2881 85.7133 65.044 85.7133 68.1064Z" fill="black" stroke="black" stroke-width="0.672414"/>
<path d="M82.7423 65.1376C82.7423 67.7711 81.0522 69.7701 79.1172 69.7701C77.1822 69.7701 75.4921 67.7711 75.4921 65.1376C75.4921 62.504 77.1822 60.505 79.1172 60.505C81.0522 60.505 82.7423 62.504 82.7423 65.1376Z" fill="white" stroke="white" stroke-width="0.672414"/>
</svg>
